<svg width="726" height="77" viewBox="0 0 726 77" fill="none" xmlns="http://www.w3.org/2000/svg">
<path d="M0.300049 75.9999V5.29991H25.9C33.3 5.29991 39.5001 6.76657 44.5001 9.6999C49.5667 12.5666 53.3667 16.6666 55.9001 21.9999C58.5001 27.2666 59.8001 33.4999 59.8001 40.6999C59.8001 47.8999 58.5334 54.1332 56.0001 59.3999C53.4667 64.6666 49.6667 68.7666 44.6001 71.6999C39.6001 74.5666 33.4001 75.9999 26 75.9999H0.300049ZM10.9 66.2999H25.5C30.9667 66.2999 35.4334 65.2332 38.9001 63.0999C42.3667 60.8999 44.9334 57.8999 46.6 54.0999C48.2667 50.2332 49.1001 45.7666 49.1001 40.6999C49.1001 35.7666 48.2667 31.3666 46.6 27.4999C45 23.6332 42.4667 20.5999 39 18.3999C35.6 16.1332 31.2001 14.9999 25.8001 14.9999H10.9V66.2999Z" fill="black"/>
<path d="M91.7657 76.5999C86.2323 76.5999 81.599 75.4666 77.8657 73.1999C74.1323 70.9332 71.299 67.7999 69.3657 63.7999C67.499 59.7332 66.5657 55.0666 66.5657 49.7999C66.5657 44.4666 67.5323 39.7666 69.4657 35.6999C71.4657 31.6332 74.3323 28.4332 78.0657 26.0999C81.8657 23.7666 86.4323 22.5999 91.7657 22.5999C95.8323 22.5999 99.3657 23.3666 102.366 24.8999C105.366 26.3666 107.832 28.3666 109.766 30.8999C111.766 33.4332 113.232 36.2666 114.166 39.3999C115.099 42.4666 115.499 45.6666 115.366 48.9999C115.366 49.7332 115.332 50.4332 115.266 51.0999C115.199 51.7666 115.132 52.4666 115.066 53.1999H76.9657C77.1657 55.8666 77.8323 58.2999 78.9657 60.4999C80.1657 62.6999 81.8323 64.4666 83.9657 65.7999C86.099 67.0666 88.7323 67.6999 91.8657 67.6999C93.599 67.6999 95.2657 67.4999 96.8657 67.0999C98.5323 66.6332 99.999 65.9332 101.266 64.9999C102.599 63.9999 103.532 62.7332 104.066 61.1999H114.466C113.599 64.7332 112.032 67.6666 109.766 69.9999C107.566 72.2666 104.866 73.9332 101.666 74.9999C98.5323 76.0666 95.2323 76.5999 91.7657 76.5999ZM77.1657 44.9999H105.166C105.099 42.3999 104.499 40.0999 103.366 38.0999C102.232 36.0332 100.666 34.4332 98.6657 33.2999C96.6657 32.0999 94.2657 31.4999 91.4657 31.4999C88.399 31.4999 85.8323 32.1332 83.7657 33.3999C81.7657 34.6666 80.199 36.3332 79.0657 38.3999C77.999 40.3999 77.3657 42.5999 77.1657 44.9999Z" fill="black"/>
<path d="M123.988 75.9999V23.2999H133.788L134.288 30.6999C135.621 28.7666 137.221 27.2332 139.088 26.0999C140.954 24.8999 142.954 24.0332 145.088 23.4999C147.221 22.8999 149.288 22.5999 151.288 22.5999C156.354 22.5999 160.321 23.6999 163.188 25.8999C166.121 28.0332 168.188 30.9332 169.388 34.5999C170.654 38.1999 171.288 42.2999 171.288 46.8999V75.9999H160.888V48.9999C160.888 46.8666 160.754 44.7666 160.488 42.6999C160.221 40.6332 159.654 38.7999 158.788 37.1999C157.988 35.5332 156.821 34.2332 155.288 33.2999C153.754 32.2999 151.688 31.7999 149.088 31.7999C145.888 31.7999 143.188 32.6666 140.988 34.3999C138.788 36.1332 137.121 38.4666 135.988 41.3999C134.854 44.3332 134.288 47.6332 134.288 51.2999V75.9999H123.988Z" fill="black"/>
<path d="M181.558 75.9999V23.2999H191.358L191.858 30.6999C193.191 28.7666 194.791 27.2332 196.658 26.0999C198.525 24.8999 200.525 24.0332 202.658 23.4999C204.791 22.8999 206.858 22.5999 208.858 22.5999C213.925 22.5999 217.891 23.6999 220.758 25.8999C223.691 28.0332 225.758 30.9332 226.958 34.5999C228.225 38.1999 228.858 42.2999 228.858 46.8999V75.9999H218.458V48.9999C218.458 46.8666 218.325 44.7666 218.058 42.6999C217.791 40.6332 217.225 38.7999 216.358 37.1999C215.558 35.5332 214.391 34.2332 212.858 33.2999C211.325 32.2999 209.258 31.7999 206.658 31.7999C203.458 31.7999 200.758 32.6666 198.558 34.3999C196.358 36.1332 194.691 38.4666 193.558 41.3999C192.425 44.3332 191.858 47.6332 191.858 51.2999V75.9999H181.558Z" fill="black"/>
<path d="M239.128 75.9999V23.2999H249.428V75.9999H239.128ZM244.228 16.2999C242.228 16.2999 240.595 15.6999 239.328 14.4999C238.128 13.2332 237.528 11.6332 237.528 9.6999C237.528 7.76657 238.162 6.1999 239.428 4.9999C240.695 3.73324 242.295 3.0999 244.228 3.0999C246.028 3.0999 247.595 3.73324 248.928 4.9999C250.328 6.1999 251.028 7.76657 251.028 9.6999C251.028 11.6332 250.362 13.2332 249.028 14.4999C247.762 15.6999 246.162 16.2999 244.228 16.2999Z" fill="black"/>
<path d="M279.875 76.5999C277.408 76.5999 274.942 76.3666 272.475 75.8999C270.008 75.4332 267.708 74.5999 265.575 73.3999C263.442 72.1999 261.642 70.5999 260.175 68.5999C258.708 66.5332 257.775 63.9999 257.375 60.9999H267.875C268.408 62.5999 269.342 63.8999 270.675 64.8999C272.075 65.8999 273.608 66.6332 275.275 67.0999C277.008 67.5666 278.708 67.7999 280.375 67.7999C281.375 67.7999 282.475 67.7332 283.675 67.5999C284.942 67.4666 286.142 67.1666 287.275 66.6999C288.408 66.2332 289.342 65.5666 290.075 64.6999C290.808 63.7666 291.175 62.5332 291.175 60.9999C291.175 59.7999 290.842 58.7999 290.175 57.9999C289.575 57.1999 288.708 56.5666 287.575 56.0999C286.508 55.5666 285.208 55.1666 283.675 54.8999C280.675 54.2332 277.442 53.5999 273.975 52.9999C270.575 52.3332 267.575 51.1999 264.975 49.5999C264.042 48.9999 263.208 48.3332 262.475 47.5999C261.742 46.7999 261.108 45.8999 260.575 44.8999C260.042 43.8999 259.642 42.8332 259.375 41.6999C259.108 40.5666 258.975 39.3332 258.975 37.9999C258.975 35.2666 259.508 32.9332 260.575 30.9999C261.708 29.0666 263.242 27.4999 265.175 26.2999C267.108 25.0332 269.308 24.0999 271.775 23.4999C274.242 22.8999 276.842 22.5999 279.575 22.5999C283.108 22.5999 286.308 23.1666 289.175 24.2999C292.042 25.4332 294.408 27.0999 296.275 29.2999C298.142 31.4999 299.242 34.2666 299.575 37.5999H289.875C289.475 35.7999 288.308 34.3666 286.375 33.2999C284.508 32.1666 282.142 31.5999 279.275 31.5999C278.275 31.5999 277.175 31.6666 275.975 31.7999C274.842 31.9332 273.742 32.2332 272.675 32.6999C271.608 33.1666 270.742 33.8332 270.075 34.6999C269.408 35.4999 269.075 36.5666 269.075 37.8999C269.075 39.1666 269.375 40.2332 269.975 41.0999C270.642 41.9666 271.575 42.6666 272.775 43.1999C274.042 43.7332 275.475 44.1666 277.075 44.4999C279.342 45.0332 281.775 45.5332 284.375 45.9999C287.042 46.4666 289.208 46.9666 290.875 47.4999C293.075 48.0999 294.942 48.9666 296.475 50.0999C298.075 51.2332 299.275 52.6666 300.075 54.3999C300.942 56.1332 301.375 58.2332 301.375 60.6999C301.375 63.8999 300.742 66.5332 299.475 68.5999C298.208 70.5999 296.508 72.1999 294.375 73.3999C292.308 74.5999 289.975 75.4332 287.375 75.8999C284.842 76.3666 282.342 76.5999 279.875 76.5999Z" fill="black"/>
<path d="M336.593 75.9999V5.29991H347.193V36.7999H357.393L378.993 5.29991H391.093L366.593 40.0999L391.193 75.9999H378.793L358.193 46.4999H347.193V75.9999H336.593Z" fill="black"/>
<path d="M403.556 76.9999C401.556 76.9999 399.889 76.3666 398.556 75.0999C397.289 73.8332 396.656 72.1666 396.656 70.0999C396.656 68.0332 397.322 66.3666 398.656 65.0999C399.989 63.7666 401.622 63.0999 403.556 63.0999C405.489 63.0999 407.089 63.7666 408.356 65.0999C409.689 66.3666 410.356 68.0332 410.356 70.0999C410.356 72.1666 409.689 73.8332 408.356 75.0999C407.089 76.3666 405.489 76.9999 403.556 76.9999Z" fill="#19647E"/>
<path d="M444.848 75.9999V5.29991H471.748C475.148 5.29991 478.248 5.59991 481.048 6.19991C483.915 6.73324 486.382 7.6999 488.448 9.0999C490.515 10.4332 492.082 12.2666 493.148 14.5999C494.282 16.8666 494.848 19.7332 494.848 23.1999C494.848 26.5999 494.082 29.6666 492.548 32.3999C491.015 35.0666 488.682 37.0666 485.548 38.3999C489.748 39.3332 492.915 41.2332 495.048 44.0999C497.248 46.9666 498.348 50.7332 498.348 55.3999C498.348 59.3999 497.615 62.7332 496.148 65.3999C494.682 68.0666 492.648 70.1666 490.048 71.6999C487.448 73.2332 484.448 74.3332 481.048 74.9999C477.648 75.6666 474.015 75.9999 470.148 75.9999H444.848ZM455.448 66.2999H470.548C472.548 66.2999 474.548 66.1999 476.548 65.9999C478.548 65.7332 480.382 65.2332 482.048 64.4999C483.782 63.7666 485.148 62.6666 486.148 61.1999C487.215 59.7332 487.749 57.7666 487.749 55.2999C487.749 53.2332 487.348 51.5332 486.548 50.1999C485.748 48.7999 484.682 47.6999 483.348 46.8999C482.015 46.0999 480.448 45.5332 478.648 45.1999C476.915 44.8666 475.115 44.6999 473.248 44.6999H455.448V66.2999ZM455.448 35.5999H468.848C471.115 35.5999 473.182 35.3999 475.048 34.9999C476.982 34.5999 478.648 33.9332 480.048 32.9999C481.448 32.0666 482.515 30.8999 483.248 29.4999C484.048 28.0332 484.448 26.2666 484.448 24.1999C484.515 21.4666 483.915 19.4666 482.648 18.1999C481.449 16.8666 479.815 15.9999 477.748 15.5999C475.682 15.1332 473.415 14.8999 470.948 14.8999H455.448V35.5999Z" fill="black"/>
<path d="M523.959 76.5999C521.559 76.5999 519.226 76.2999 516.959 75.6999C514.759 75.0332 512.793 74.0666 511.059 72.7999C509.326 71.4666 507.926 69.8332 506.859 67.8999C505.859 65.8999 505.359 63.5666 505.359 60.8999C505.359 57.6999 505.959 55.0666 507.159 52.9999C508.426 50.8666 510.093 49.2332 512.159 48.0999C514.226 46.8999 516.593 46.0666 519.259 45.5999C521.993 45.0666 524.826 44.7999 527.759 44.7999H540.659C540.659 42.1999 540.259 39.9332 539.459 37.9999C538.659 35.9999 537.393 34.4666 535.659 33.3999C533.993 32.2666 531.759 31.6999 528.959 31.6999C527.293 31.6999 525.693 31.8999 524.159 32.2999C522.693 32.6332 521.426 33.1999 520.359 33.9999C519.293 34.7999 518.559 35.8666 518.159 37.1999H507.359C507.759 34.6666 508.659 32.4999 510.059 30.6999C511.459 28.8332 513.193 27.2999 515.259 26.0999C517.326 24.8999 519.526 24.0332 521.859 23.4999C524.259 22.8999 526.693 22.5999 529.159 22.5999C536.759 22.5999 542.226 24.8332 545.559 29.2999C548.959 33.6999 550.659 39.7666 550.659 47.4999V75.9999H541.759L541.359 69.2999C539.826 71.3666 537.993 72.9332 535.859 73.9999C533.793 75.0666 531.726 75.7666 529.659 76.0999C527.593 76.4332 525.693 76.5999 523.959 76.5999ZM525.559 67.8999C528.559 67.8999 531.193 67.3999 533.459 66.3999C535.726 65.3332 537.493 63.8332 538.759 61.8999C540.026 59.8999 540.659 57.5666 540.659 54.8999V52.6999H531.259C529.326 52.6999 527.426 52.7666 525.559 52.8999C523.759 52.9666 522.093 53.2332 520.559 53.6999C519.093 54.0999 517.893 54.7999 516.959 55.7999C516.093 56.7999 515.659 58.2332 515.659 60.0999C515.659 61.8999 516.126 63.3666 517.059 64.4999C517.993 65.6332 519.226 66.4999 520.759 67.0999C522.293 67.6332 523.893 67.8999 525.559 67.8999Z" fill="black"/>
<path d="M561.019 75.9999V23.2999H570.719L571.319 29.4999C572.519 27.7666 573.852 26.4332 575.319 25.4999C576.852 24.4999 578.485 23.7666 580.219 23.2999C581.952 22.8332 583.719 22.5999 585.519 22.5999C589.052 22.5999 591.952 23.3332 594.219 24.7999C596.552 26.2666 598.352 28.2666 599.619 30.7999C600.885 28.9999 602.319 27.4999 603.919 26.2999C605.519 25.0332 607.285 24.0999 609.219 23.4999C611.152 22.8999 613.219 22.5999 615.419 22.5999C619.352 22.5999 622.519 23.4666 624.919 25.1999C627.385 26.8666 629.152 29.1332 630.219 31.9999C631.352 34.8666 631.919 38.1666 631.919 41.8999V75.9999H621.519V45.9999C621.519 44.3999 621.452 42.7999 621.319 41.1999C621.185 39.5999 620.785 38.0999 620.119 36.6999C619.519 35.2332 618.619 34.0666 617.419 33.1999C616.285 32.2666 614.652 31.7999 612.519 31.7999C610.452 31.7999 608.719 32.2666 607.319 33.1999C605.985 34.1332 604.885 35.3999 604.019 36.9999C603.219 38.5332 602.619 40.1999 602.219 41.9999C601.885 43.7999 601.719 45.5999 601.719 47.3999V75.9999H591.319V45.8999C591.319 44.3666 591.252 42.7999 591.119 41.1999C590.985 39.5999 590.652 38.0999 590.119 36.6999C589.585 35.2332 588.685 34.0666 587.419 33.1999C586.219 32.2666 584.585 31.7999 582.519 31.7999C579.519 31.7999 577.185 32.6666 575.519 34.3999C573.919 36.0666 572.819 38.1332 572.219 40.5999C571.619 42.9999 571.319 45.2999 571.319 47.4999V75.9999H561.019Z" fill="black"/>
<path d="M646.927 75.9999V32.4999H638.527V23.2999H646.927V17.9999C646.927 13.9999 647.493 10.7666 648.627 8.2999C649.827 5.76657 651.66 3.8999 654.127 2.6999C656.66 1.4999 659.96 0.899902 664.027 0.899902H670.927V9.9999H665.227C663.16 9.9999 661.527 10.3666 660.327 11.0999C659.193 11.7666 658.393 12.7999 657.927 14.1999C657.46 15.5332 657.227 17.1666 657.227 19.0999V23.2999H670.927V32.4999H657.227V75.9999H646.927Z" fill="black"/>
<path d="M699.757 76.5999C694.29 76.5999 689.657 75.4999 685.857 73.2999C682.057 71.0332 679.157 67.8666 677.157 63.7999C675.224 59.7332 674.257 55.0332 674.257 49.6999C674.257 44.2999 675.257 39.5999 677.257 35.5999C679.257 31.5332 682.157 28.3666 685.957 26.0999C689.757 23.7666 694.39 22.5999 699.857 22.5999C705.324 22.5999 709.957 23.7666 713.757 26.0999C717.557 28.3666 720.424 31.5332 722.357 35.5999C724.29 39.6666 725.257 44.3999 725.257 49.7999C725.257 55.0666 724.257 59.7332 722.257 63.7999C720.324 67.8666 717.457 71.0332 713.657 73.2999C709.924 75.4999 705.29 76.5999 699.757 76.5999ZM699.757 67.3999C703.357 67.3999 706.257 66.5999 708.457 64.9999C710.724 63.3999 712.39 61.2666 713.457 58.5999C714.524 55.8666 715.057 52.8999 715.057 49.6999C715.057 46.4999 714.524 43.5666 713.457 40.8999C712.39 38.2332 710.724 36.0999 708.457 34.4999C706.257 32.8332 703.357 31.9999 699.757 31.9999C696.224 31.9999 693.324 32.8332 691.057 34.4999C688.79 36.0999 687.124 38.2332 686.057 40.8999C685.057 43.5666 684.557 46.4999 684.557 49.6999C684.557 52.9666 685.057 55.9332 686.057 58.5999C687.124 61.2666 688.79 63.3999 691.057 64.9999C693.324 66.5999 696.224 67.3999 699.757 67.3999Z" fill="black"/>
</svg>
